<svg xmlns="http://www.w3.org/2000/svg" height="800" width="1200" viewBox="-86.202 -105.08925 747.084 630.5355"><g fill="none"><g fill="#00AEEF"><path d="M286.719 300.78L156.03 225.527V75.176L286.719 0l130.688 75.175v150.43zm-115.794-83.793l115.794 66.636 115.793-66.636V83.714L286.719 17.078 170.925 83.714z"/><path d="M378.008 97.84v105.02l-46.205 26.575-87.766-87.465v88.822l-48.528-27.932V97.84l46.206-26.575 87.766 87.465V69.908z"/></g><path d="M549.359 334.429h-4.832v-2.5h12.358v2.5h-4.832v12.923h-2.694zm13.009 1.886v11.037h-2.649V331.93h2.835l4.646 7.31 4.646-7.31h2.834v15.423h-2.648v-11.084l-4.832 7.264h-.093zM459.172 420.31h19.736l37.649-71.071 37.555 71.072h19.736l-48.311-88.383h-18.053zm-69.732-88.382h-17.21v88.383h75.11l9.54-17.452h-67.44zM16.51 420.31H0v-88.382h18.567l60.472 63.988v-63.988h16.65v88.43H78.663v-.047L16.51 355.15zm114.862-88.382v88.43h-17.164v-88.431zm36.386 77.592v10.79h-17.444v-88.382h17.444v55.779l61.267-55.779h24.974l-47.797 42.925 47.517 45.504h-24.74v-.046l-34.703-34.715zm116.641 10.79c-5.379 0-9.822-.469-13.33-1.407-3.507-.938-6.313-2.533-8.464-4.738-2.152-2.205-3.648-5.207-4.49-8.866-.842-3.66-1.263-8.21-1.263-13.605v-31.102c0-5.395.421-9.946 1.263-13.605.842-3.706 2.338-6.661 4.49-8.866 2.15-2.205 4.957-3.8 8.465-4.738 3.507-.939 7.95-1.408 13.329-1.408h46.44c5.192 0 9.588.47 13.096 1.408 3.554.938 6.36 2.533 8.512 4.738 2.151 2.205 3.648 5.207 4.536 8.866.889 3.706 1.357 8.21 1.357 13.605v31.102c0 5.395-.468 9.946-1.357 13.605-.888 3.706-2.432 6.661-4.536 8.866-2.152 2.205-4.958 3.8-8.512 4.738-3.555.938-7.904 1.408-13.095 1.408zm56.823-59.625c0-4.362-.748-7.318-2.291-8.913-1.544-1.595-4.21-2.392-8.091-2.392h-46.395c-3.835 0-6.547.797-8.09 2.392-1.544 1.595-2.292 4.55-2.292 8.913v31.01c0 4.362.748 7.318 2.245 8.866 1.496 1.548 4.209 2.298 8.137 2.298h46.395c3.928 0 6.64-.75 8.137-2.298 1.497-1.548 2.245-4.504 2.245-8.867z" fill="#191919"/></g></svg>